<?xml version="1.0" encoding="UTF-8"?>
<svg version="1.1" viewBox="0 0 840 300" xmlns="http://www.w3.org/2000/svg">
	<path d="m64.76 49.108c-16.21 6.7854-34.031 25.955-39.659 50.017-7.1278 30.487 22.534 43.38 24.967 39.152 2.8635-4.967-5.3151-6.6467-6.9986-22.465-2.1758-20.431 7.3224-43.26 19.276-53.276 2.222-1.861 2.1163 0.7292 2.1163 5.5203 0 8.5676-0.4734 85.48-0.4734 101.53 0 21.72-0.8971 28.578-2.5083 35.356-1.6325 6.8681-4.257 11.509-2.2683 13.296 2.2219 1.9996 11.709-2.7567 17.201-10.422 6.5857-9.1931 8.891-20.234 9.3049-32.223 0.4999-14.453 0.4786-37.387 0.4999-50.469 0.02-11.998 0.2021-47.13-0.2103-68.25-0.1011-5.1803-14.468-10.615-21.248-7.7745m575.63 101.65c-0.5226 11.292-3.0221 20.118-6.1242 26.343-6.0055 12.052-18.467 15.794-23.758-1.5309-2.8834-9.444-3.0181-25.216-0.9451-38.395 2.1102-13.426 8.0024-23.565 17.759-22.65 9.6235 0.9039 14.128 13.304 13.068 36.233zm-162.24 70.056c-0.1306 18.762-3.0834 35.212-9.4155 39.99-8.9809 6.7747-21.052 1.6929-18.552-11.998 2.2116-12.115 12.671-24.487 27.993-39.604 0 0 0.032 3.4474-0.025 11.612zm-2.4528-70.165c-0.5492 10.284-3.2154 20.616-6.1242 26.454-6.0042 12.052-18.556 15.82-23.758-1.5309-3.5566-11.855-2.7048-27.198-0.9451-36.865 2.2835-12.543 7.8185-24.179 17.759-24.179 9.6648 0 14.431 10.603 13.068 36.122zm-93.983-0.1573c-0.5892 10.892-2.7141 19.998-6.1241 26.611-6.1695 11.969-18.375 15.765-23.758-1.5309-3.8806-12.472-2.5595-29.477-0.9452-38.663 2.3956-13.632 8.3944-23.297 17.759-22.381 9.6195 0.9398 14.296 13.303 13.068 35.965zm430.7 12.723c-2.3516 0-3.4247 2.4239-4.3125 6.504-3.0794 14.187-6.3161 17.39-10.49 17.39-4.6631 0-8.853-7.0246-9.9301-21.087-0.8465-11.057-0.7105-31.414 0.372-51.663 0.2212-4.1605-0.9265-8.277-12.086-12.331-4.8018-1.7437-11.782-4.3112-15.257 4.0779-9.8194 23.701-13.661 42.517-14.565 50.161-0.047 0.3956-0.5319 0.4764-0.6172-0.4479-0.5759-6.1222-1.8636-17.247-2.0236-40.622-0.031-4.5605-0.9971-8.4424-6.0308-11.62-3.2661-2.0622-13.184-5.7095-16.756-1.3704-3.0941 3.5487-6.6774 13.099-10.401 24.419-3.026 9.2009-5.1336 15.425-5.1336 15.425s0.04-24.826 0.076-34.243c0.016-3.5526-2.4209-4.7364-3.1554-4.951-3.3074-0.9599-9.8235-2.5635-12.59-2.5635-3.4127 0-4.2485 1.9076-4.2485 4.6871 0 0.3639-0.5386 32.686-0.5386 55.287 0 0.9817 0 2.0528 0.01 3.1906-1.8876 10.388-8.0091 24.489-14.666 24.489-6.6654 0-9.8101-5.8952-9.8101-32.839 0-15.718 0.4719-22.553 0.7039-33.921 0.1346-6.5481 0.3946-11.576 0.3799-12.718-0.049-3.4993-6.1001-5.263-8.9156-5.9148-2.8288-0.6573-5.287-0.9119-7.2066-0.8026-2.7168 0.1533-4.6391 1.9357-4.6391 4.3872 0 1.3144 0.015 3.8139 0.015 3.8139-3.4993-5.4989-9.1275-9.3262-12.872-10.435-10.086-2.9954-20.611-0.3413-28.549 10.767-6.3095 8.8263-10.113 18.823-11.61 33.186-1.0944 10.5-0.7372 21.148 1.2078 30.153-2.3502 10.161-6.7134 14.324-11.491 14.324-6.936 0-11.964-11.321-11.38-30.901 0.3852-12.878 2.9621-21.916 5.7789-34.991 1.2011-5.5736 0.2253-8.4917-2.2223-11.288-2.2449-2.5648-7.0279-3.8752-13.904-2.2635-4.8977 1.1491-11.9 2.3848-18.307 3.334 0 0 0.3866-1.5424 0.7039-4.2618 1.6663-14.261-13.831-13.104-18.775-8.5491-2.9514 2.7195-4.9604 5.9269-5.7229 11.694-1.2091 9.1516 6.2548 13.468 6.2548 13.468-2.4489 11.21-8.4517 25.854-14.649 36.441-3.3193 5.6724-5.8588 9.8757-9.1369 14.344-0.012-1.6638-0.021-3.3274-0.027-4.9834-0.075-23.568 0.2386-42.116 0.3772-48.801 0.1347-6.548 0.3973-11.443 0.3826-12.584-0.037-2.5595-1.5317-3.526-4.6404-4.7498-2.7488-1.0824-5.9989-1.8316-9.3702-2.0929-4.2552-0.3319-6.8187 1.925-6.7521 4.5938 0.013 0.5039 0.013 3.598 0.013 3.598-3.4994-5.499-9.1276-9.3262-12.872-10.435-10.086-2.9941-20.611-0.3399-28.549 10.767-6.3081 8.8263-10.439 21.212-11.61 33.076-1.0904 11.058-0.8891 20.455 0.5973 28.371-1.6037 7.9266-6.2148 16.216-11.428 16.216-6.6654 0-10.458-5.8953-10.458-32.839 0-15.718 0.4719-22.553 0.7039-33.92 0.1346-6.548 0.3946-11.578 0.3799-12.718-0.049-3.4993-6.1002-5.263-8.9156-5.9162-2.9461-0.6812-5.4896-0.9318-7.4426-0.7879-2.5768 0.192-4.3885 2.4996-4.3885 4.2206v3.9659c-3.4993-5.499-9.1275-9.3262-12.872-10.435-10.086-2.9941-20.552-0.2972-28.549 10.767-5.215 7.2146-9.4369 15.213-11.61 32.919-0.6279 5.1167-0.9052 9.9081-0.8692 14.387-2.0796 12.718-11.264 27.376-18.778 27.376-4.3965 0-8.5837-8.5275-8.5837-26.702 0-24.209 1.4984-58.677 1.7517-61.999 0 0 9.4928-0.1613 11.331-0.1827 4.735-0.052 9.0236 0.06 15.33-0.2626 3.1634-0.1613 6.2108-11.514 2.9461-12.919-1.4797-0.6359-11.938-1.1931-16.084-1.2811-3.486-0.079-13.191-0.7972-13.191-0.7972s0.8705-22.878 1.0731-25.295c0.172-2.0143-2.4342-3.0514-3.9286-3.6807-3.6339-1.537-6.8853-2.2729-10.739-3.0674-5.3244-1.0984-7.7399-0.024-8.2118 4.4698-0.7105 6.8201-1.0785 26.796-1.0785 26.796-3.9072 0-17.254-0.7638-21.162-0.7638-3.6313 0-7.5506 15.617-2.5302 15.809 5.7762 0.224 15.842 0.4173 22.516 0.6186 0 0-0.2972 35.036-0.2972 45.852 0 1.1508 0.01 2.259 0.012 3.3343-3.6727 19.143-16.609 29.484-16.609 29.484 2.7781-12.664-2.8968-22.174-13.119-30.225-3.766-2.9666-11.201-8.5828-19.519-14.737 0 0 4.8178-4.7484 9.0903-14.301 3.0274-6.7667 3.1581-14.511-4.2725-16.218-12.278-2.8235-22.401 6.1934-25.42 15.82-2.3395 7.4572-1.0917 12.991 3.4914 18.739 0.3346 0.42 0.6972 0.8492 1.0718 1.2811-2.7715 5.3419-6.5788 12.534-9.8035 18.111-8.9503 15.485-15.712 27.733-20.821 27.733-4.0846 0-4.0299-12.435-4.0299-24.078 0-10.037 0.7412-25.127 1.3331-40.751 0.1959-5.167-2.3876-8.1105-6.7187-10.777-2.6315-1.6197-8.2478-4.8044-11.5-4.8044-4.8686 0-18.915 0.6625-32.187 39.054-1.6726 4.8389-4.9585 13.656-4.9585 13.656l0.2828-46.167c0-1.0824-0.5765-2.1289-1.8965-2.8448-2.2365-1.2144-8.2099-3.6979-13.521-3.6979-2.5307 0-3.7936 1.1771-3.7936 3.5233l-0.4633 72.229c0 5.488 0.1431 11.89 0.6857 14.69 0.5406 2.8037 1.4164 5.0845 2.5011 6.4415 1.0831 1.3544 2.336 2.3876 4.4017 2.814 1.9226 0.3958 12.45 1.7477 12.998-2.2755 0.6556-4.8215 0.6807-10.037 6.2088-29.486 8.6061-30.281 19.827-45.055 25.102-50.302 0.9223-0.9171 1.9754-0.9718 1.9247 0.5292-0.2252 6.6388-1.0171 23.228-1.5502 37.321-1.4289 37.715 5.4322 44.706 15.237 44.706 7.5012 0 18.075-7.4533 29.41-26.32 7.0667-11.758 13.928-23.286 18.858-31.595 3.4354 3.1802 7.2906 6.603 11.143 10.26 8.9529 8.4973 11.892 16.572 9.9421 24.231-1.4917 5.8557-7.1093 11.89-17.107 6.0249-2.9141-1.7112-4.1579-3.0333-7.088-4.9625-1.5743-1.0364-3.9779-1.3462-5.4189-0.2605-3.7433 2.8224-5.8842 6.4123-7.1066 10.857-1.1891 4.3247 3.142 6.6108 7.6318 8.6104 3.8659 1.721 12.175 3.2805 17.474 3.4581 20.647 0.6905 37.186-9.9689 48.7-37.465 2.061 23.746 10.833 37.184 26.072 37.184 10.189 0 20.404-13.17 24.871-26.126 1.2824 5.2812 3.1807 9.8737 5.6322 13.757 11.743 18.606 34.524 14.601 45.967-1.1981 3.538-4.8819 4.0765-6.6362 4.0765-6.6362 1.669 14.918 13.683 20.131 20.561 20.131 7.7039 0 15.658-3.642 21.233-16.193 0.6533 1.3621 1.3664 2.6629 2.145 3.896 11.743 18.606 34.524 14.601 45.967-1.1981 0.5399-0.7411 1.0078-1.4134 1.4171-2.0168l0.3359 9.7991s-6.5281 5.9885-10.535 9.6622c-17.637 16.181-31.047 28.457-32.034 42.753-1.2664 18.228 13.517 25.003 24.702 25.891 11.878 0.9426 22.049-5.6187 28.301-14.801 5.4989-8.0823 9.0983-25.478 8.8343-42.658-0.1053-6.8799-0.2786-15.628-0.4146-25.004 6.1988-7.1986 13.183-16.297 19.614-26.947 7.008-11.606 14.518-27.192 18.364-39.322 0 0 6.5255 0.056 13.489-0.3999 2.2276-0.1453 2.8675 0.3092 2.4556 1.9423-0.4973 1.9729-8.7983 33.991-1.2225 55.32 5.1857 14.601 16.876 19.299 23.806 19.299 8.1131 0 15.874-6.1269 20.033-15.225 0.5012 1.0143 1.0251 1.9958 1.597 2.9019 11.743 18.606 34.444 14.577 45.967-1.1981 2.6008-3.5592 4.0765-6.6362 4.0765-6.6362 2.4729 15.44 14.48 20.209 21.357 20.209 7.164 0 13.963-2.9369 19.479-15.989 0.2306 5.7468 0.5932 10.446 1.1664 11.927 0.3493 0.906 2.3849 2.0434 3.8659 2.5927 6.5534 2.4302 13.238 1.281 15.71 0.7811 1.713-0.3467 3.0488-1.721 3.2314-5.2698 0.4799-9.3181 0.1853-24.974 3.0101-36.609 4.7418-19.527 9.1649-27.101 11.263-30.851 1.1744-2.101 2.4995-2.4476 2.5475-0.224 0.099 4.4991 0.3226 17.711 2.1596 35.463 1.349 13.055 3.1514 20.772 4.5364 23.214 3.9526 6.984 8.8343 7.3147 12.81 7.3147 2.5288 0 7.8171-0.6988 7.3439-5.1432-0.2306-2.1663 0.1733-15.554 4.8484-34.792 3.0527-12.563 8.1424-23.914 9.9781-28.064 0.6772-1.5304 0.9918-0.324 0.9811-0.089-0.3866 8.6517-1.2544 36.95 2.2702 52.427 4.7778 20.967 18.599 23.313 23.416 23.313 10.282 0 18.691-7.8214 21.524-28.401 0.6825-4.9526-0.328-8.7768-3.3554-8.7768" fill="#262626"/>
</svg>
